<svg fill="#EFE4D6"
         
          viewBox="0 0 344 71"
          xmlns="http://www.w3.org/2000/svg"
        >
          <path d="M22.809 34.6753C21.8828 34.1736 19.4282 34.2431 19.4282 32.8537C19.4282 32.4523 19.8605 31.7268 20.1229 31.3949C20.2541 31.225 21.8133 31.063 22.0449 30.5998C23.0406 28.7396 24.0672 30.0364 24.0672 26.918C24.0672 26.4162 24.0363 25.8914 23.8665 25.3896C23.2722 23.5989 22.6392 24.2936 21.4428 23.4291C20.9102 23.0663 18.9188 21.1366 18.3939 21.1366C18.062 21.1366 17.7995 21.3681 17.429 21.3681C16.9659 21.3681 16.5337 21.206 16.0705 21.206C15.8698 21.206 15.6383 21.2369 15.4376 21.2755C15.1751 21.2755 15.0053 21.206 14.8046 21.206C14.5422 21.206 14.272 21.3064 13.9787 21.3064C13.2455 21.3064 12.7823 20.6426 12.188 20.6426C11.5936 20.6426 11.0302 20.7738 10.4281 20.7738H10.0653C9.56359 20.7738 8.96924 20.8047 8.57558 20.9745C8.37489 21.044 8.2128 21.1443 7.98123 21.1443C7.51811 21.1443 7.15532 20.712 6.45291 20.712C5.81997 20.712 5.22562 20.8433 4.59268 20.8433C3.79765 20.8433 3.03349 20.7429 2.23845 20.7429C1.60551 20.7429 0.57891 21.3759 0.57891 22.1014C0.57891 22.827 1.54376 22.9659 2.03776 23.0277C2.73245 23.128 3.00261 23.5217 3.59696 23.7224C4.59268 24.0234 4.56181 24.6486 4.89372 25.4514C5.12528 25.984 5.45719 26.2773 5.45719 26.9411C5.45719 27.3734 5.61928 27.767 5.61928 28.1993C5.61928 28.7627 5.48806 29.3262 5.48806 29.8897C5.48806 30.7542 5.65016 31.6187 5.65016 32.4755C5.65016 33.2088 5.44947 33.9035 5.44947 34.5982C5.44947 34.9918 5.61156 35.3314 5.61156 35.756C5.61156 36.6205 5.84313 37.1531 5.84313 37.678C5.84313 38.6042 4.97862 38.8358 4.97862 39.6694C4.97862 39.9704 5.04809 40.3332 5.04809 40.6651C5.04809 40.8658 5.01722 41.0588 4.94775 41.2286C4.48462 42.4559 5.24878 43.0194 3.35768 43.8839C2.89455 44.0846 2.85595 44.2158 2.29248 44.2158C2.09179 44.2158 1.65954 44.1849 1.32763 44.1849C1.12694 44.1849 0.964849 44.2158 0.864505 44.2544C0.602066 44.3856 0.038594 44.8873 0 45.1806V45.3118C0 46.1069 0.964849 46.6086 1.69042 46.6086C2.09179 46.6086 2.48545 46.2767 2.98717 46.2458C3.51977 46.2149 4.08324 46.0143 4.57724 46.0143C5.0095 46.0143 5.44175 46.1146 5.874 46.1146C6.23679 46.1146 6.63816 46.0837 7.00095 45.9834C7.33285 46.0837 7.66476 46.1455 8.02755 46.1455C8.52927 46.1455 8.9924 45.9834 9.4864 45.9834C9.88778 45.9834 10.1502 45.8213 10.5516 45.8213C10.7832 45.8213 11.0147 45.8908 11.2154 45.8908C11.6785 45.8908 12.5739 45.528 12.5739 44.9645C12.5739 44.6326 11.7789 44.3007 11.5087 44.1386C9.71796 43.0734 10.4435 40.8195 10.1116 39.1986C10.0807 38.967 10.0113 38.7663 10.0113 38.5347C10.0113 38.172 10.0807 37.84 10.0807 37.5081V36.5124C10.0807 35.4164 10.212 34.4206 11.2386 33.7259C11.308 33.7259 11.4084 33.6951 11.501 33.6951C11.8329 33.6951 11.9641 33.9266 12.2343 33.9266C12.5971 33.9266 12.8672 33.6256 13.1605 33.6256C13.2918 33.6256 13.423 33.6565 13.5619 33.6951C13.6931 33.6642 13.8244 33.6256 13.9633 33.6256C14.8278 33.6256 15.9547 34.3203 16.7498 34.3203H17.2129C17.676 34.3203 17.4753 34.3512 18.0388 34.9146C18.3399 35.2157 18.9033 35.2465 19.1658 35.5784C19.6675 36.2114 19.7601 36.3426 19.8991 37.1685C19.9994 37.8632 20.4316 37.732 20.4316 39.3529C20.4316 39.7543 20.3313 40.148 20.1692 40.5108C19.9068 41.1051 19.8373 42.07 19.3742 42.5022C18.911 42.9345 18.2781 43.2664 17.7455 43.66C17.2438 44.0228 16.4487 44.293 16.0551 44.6866C15.9547 44.787 15.6537 44.9877 15.6537 45.1189C15.7232 45.3813 16.1863 45.4199 16.3484 45.4817C16.5491 45.582 17.4136 46.076 17.5448 46.076C17.676 46.076 17.8459 45.9448 18.0079 45.9448C18.803 45.9448 18.5405 45.3118 19.598 45.2501C22.2533 45.0494 21.4197 44.5168 22.6469 43.6909C22.8168 43.5597 24.0749 42.4636 24.2756 42.2629C25.0398 41.5296 24.9085 41.6686 24.9703 40.503C24.9703 40.2406 25.0012 39.9396 25.0012 39.6771C25.0012 38.5811 24.9703 36.7285 24.1058 35.9644C23.6427 35.5707 23.3108 34.9687 22.7782 34.6753H22.809ZM18.3244 29.7662C18.062 30.129 18.0234 30.5304 17.7609 30.8931C17.5603 31.1942 16.2326 31.858 15.8698 31.8889C15.4685 31.8889 15.1057 31.6264 14.905 31.6264C14.5731 31.6264 14.5731 32.2208 13.2146 32.2208C12.5816 32.2208 11.9873 32.4832 11.5242 32.4832C10.9916 32.4832 10.76 31.5184 10.6597 31.1247C10.5593 30.7619 10.3277 30.4918 10.2274 30.129C10.0962 29.6967 10.0962 29.0715 10.0962 28.6392C10.0962 27.6744 10.3277 26.7481 10.3277 25.8219V24.8956C10.3586 24.4943 12.049 22.4411 12.3809 22.4411C12.9135 22.4411 13.4461 22.6726 14.0096 22.6726C14.0096 22.6726 16.2635 23.5371 16.5954 23.6375C17.622 23.8999 18.417 27.219 18.417 28.2842C18.417 28.6161 18.5174 28.9171 18.5174 29.249C18.5174 29.4497 18.4479 29.6118 18.3167 29.7816L18.3244 29.7662Z" />
          <path d="M38.9903 42.7703C38.7587 42.2068 38.4885 42.3381 38.4885 41.5739C38.4885 41.0104 38.8205 40.7403 38.8205 40.4778C38.8205 40.0765 38.1566 39.8835 38.1566 39.0807C38.1566 38.4864 38.3187 37.8534 38.3187 37.2205C38.3187 36.6262 38.1875 36.0241 38.1875 35.3989C38.1875 34.6038 38.45 33.8397 38.45 33.0446C38.45 32.3113 38.2184 31.5858 38.2184 30.8216C38.2184 30.5206 38.2493 30.2273 38.2493 29.9262C38.2493 29.7641 38.2493 29.5943 38.2184 29.4245C38.0872 28.8302 37.9174 28.2667 37.9174 27.6646C37.9174 27.1012 38.1798 26.638 38.1798 26.0746C38.1798 25.8739 38.1489 25.6114 38.1489 25.3413C38.1489 25.1406 38.1798 24.9476 38.2184 24.8087C38.3496 24.4459 38.3805 24.1449 38.3805 23.7821C38.3805 23.7512 38.3805 23.7126 38.3496 22.2924C38.3496 21.2966 36.8908 20.6328 36.0262 20.6328C35.4937 20.6328 35.1617 20.7949 34.7295 21.0959C34.5983 21.1963 32.9387 21.5591 32.7072 21.5591C32.4756 21.5591 32.244 21.5282 31.9739 21.5282C31.5108 21.5282 31.1094 21.6285 31.1094 22.3927C31.1094 22.987 32.7998 23.7203 33.2629 24.1835C33.9962 24.9167 33.9962 26.6072 34.359 27.6338C34.4593 27.9657 34.6214 29.2933 34.6214 29.6252C34.6214 30.1578 34.4593 30.6827 34.4593 31.2539C34.4593 31.7865 34.66 32.3113 34.66 32.8825C34.66 33.6467 34.3976 34.3723 34.3976 35.175C34.3976 35.7771 34.6291 36.3714 34.6291 36.9967C34.6291 37.892 34.166 38.7565 34.166 39.6519C34.166 40.2463 34.4285 40.8483 34.4285 41.4736C34.4285 44.0285 32.6068 43.2643 31.8427 44.2909C31.6806 44.4916 31.5108 44.7232 31.5108 44.9856C31.5108 45.387 32.1437 45.7498 32.5065 45.7498C32.9079 45.7498 33.2706 45.5877 33.7029 45.5877C34.3667 45.5877 34.9996 45.9196 35.6943 45.9196C36.0262 45.9196 36.3273 45.8192 36.6206 45.8192C37.0528 45.8192 37.2844 46.1203 37.6472 46.1203C38.0486 46.1203 38.2801 45.7575 38.7433 45.7575C38.944 45.7575 39.1446 45.8578 39.3762 45.8578C39.8393 45.8578 40.4028 45.3252 40.4028 44.8312C40.4028 44.0053 39.2759 43.5422 38.9748 42.778L38.9903 42.7703Z" />
          <path d="M66.2132 38.2789C65.1171 38.2789 64.8855 41.1966 64.3915 41.3973C64.2603 41.4668 64.0905 41.4668 63.9284 41.4668C63.7972 41.4668 63.6274 41.4668 63.527 41.3664C63.3263 41.1966 62.7629 39.7378 62.7629 39.4445C62.7629 39.1126 62.9636 38.8501 62.9636 38.4796C62.9636 37.9161 62.5622 37.8158 62.5622 37.152C62.5622 36.3569 63.0253 35.724 63.0253 34.8595C63.0253 34.2266 62.7243 33.7634 62.7243 33.2308C62.7243 32.7677 62.8555 32.3046 62.8555 31.8029C62.8555 30.9384 62.3229 30.2437 62.3229 29.4178C62.3229 28.9855 60.9953 26.9632 60.4318 26.7934H59.274C59.0424 26.7934 58.8108 26.7934 58.6796 26.7239C58.4481 26.5927 58.0467 26.1913 57.8151 26.1913C56.9892 26.1913 56.3254 26.0215 55.5921 26.0215C54.8588 26.0215 53.4 27.0172 52.6049 27.3491C51.779 28.3448 49.749 28.1442 49.749 29.8732C49.749 30.2051 49.8802 30.5061 49.8802 30.838V31.2703C49.8802 31.8029 49.9111 32.3663 50.243 32.7986C50.3742 32.9993 51.0689 33.6245 51.2696 33.694C51.339 33.7248 51.4317 33.7248 51.532 33.7248C52.8905 33.7248 54.0175 31.7334 54.0869 30.537C54.1873 28.9469 55.0132 28.6767 56.5415 28.6767C58.1702 28.6767 59.027 30.8998 59.027 32.2891C59.027 33.447 57.4986 34.7746 56.3717 34.7746C55.5458 34.7746 54.5809 34.8441 53.948 35.4693C53.7859 35.6314 53.6161 35.6314 53.4154 35.6314C53.2842 35.6314 53.153 35.6314 53.014 35.7008C51.8871 36.164 52.1186 36.4341 51.3854 37.0285C50.9222 37.4221 50.4591 37.5611 50.1581 38.1554C49.9574 38.5182 49.9265 38.9505 49.6255 39.2515C49.1932 39.6837 48.6992 40.7798 48.6992 41.3742C48.6992 42.4008 49.6641 43.5277 50.5903 43.8596C50.8528 43.96 51.8176 44.5929 51.9488 44.5929C52.1495 44.5929 53.0063 44.3305 53.2379 44.261C53.701 44.0912 54.2645 44.2301 54.6967 44.0294C55.0286 43.8673 55.3914 43.7979 55.7619 43.6666C56.2636 43.5046 56.7268 43.3039 57.159 43.0028C57.7225 42.64 58.0853 42.038 58.8494 42.038C59.1119 42.038 59.5133 42.1074 59.6753 42.339C61.0724 42.7713 61.0339 44.068 62.7243 44.068C63.0871 44.068 63.2569 43.9059 63.5888 43.8673H64.0519C64.4533 43.8673 64.9473 43.8673 65.0785 43.767C65.6111 43.3656 65.4104 42.64 65.8427 42.2078C66.2054 41.8064 66.2363 42.1074 66.437 41.3742C66.5991 40.7798 67.1008 39.5139 67.1008 39.0508C67.1008 38.3561 66.7689 38.2558 66.1746 38.2558L66.2132 38.2789ZM57.8846 40.6949C57.3211 41.2275 55.5612 41.7215 54.7971 41.7215C53.7396 41.7215 53.3382 40.7567 53.3382 39.8304C53.3382 38.6726 53.8399 37.0439 55.0672 36.712C55.5689 36.5808 56.0321 36.3801 56.4643 36.1485C56.665 36.0482 56.8271 35.8475 57.0973 35.8475C58.3554 35.8475 59.0501 36.6734 59.0501 37.8698C59.0501 38.9659 58.6873 39.9616 57.8923 40.6872L57.8846 40.6949Z" />
          <path d="M93.5283 44.7869C92.6638 44.3855 92.1698 43.7603 91.4057 43.2585C90.8731 42.9266 90.4408 41.9618 89.8773 41.4369C88.9125 40.5415 87.0909 38.8511 87.0909 37.4231C87.0909 36.6899 87.5849 35.4317 88.1175 34.9377C88.9434 34.1427 88.1869 34.1118 89.8388 33.1778C90.3019 32.9154 90.3019 32.6452 90.9348 32.6143C91.4983 32.5835 94.223 31.5183 94.223 30.893C94.223 30.4917 92 29.6966 91.5678 29.6966C90.9039 29.6966 90.3096 30.0903 89.777 30.0903C89.2135 30.0903 88.6501 29.7275 88.0557 29.7275H85.6629C85.3619 29.7275 84.698 30.3218 84.698 30.6538C84.698 31.8116 86.7204 32.1126 86.7204 33.6023C86.7204 35.0921 84.4665 37.0526 82.969 37.0526C82.8378 37.0526 82.7066 37.0526 82.6062 36.9523C82.475 36.852 81.6414 35.1307 81.6414 34.9608C81.6414 33.7336 81.047 33.4634 81.047 32.707C81.047 31.6418 81.6414 30.6846 81.6414 29.6194C81.6414 28.7549 81.0779 28.0294 81.0779 27.1649C81.0779 26.4007 81.5102 25.5053 81.5102 24.3475C81.5102 23.2514 81.2091 23.5139 80.4527 22.989C79.7194 22.4564 79.7194 22.3561 78.7623 22.2943C78.1679 22.2248 77.5659 22.0627 76.9715 22.0627C76.2768 22.0627 75.6825 21.5996 74.9183 21.5996C73.7914 21.5996 72.6953 22.1631 72.6953 23.4212C72.6953 23.6528 72.7648 23.8535 72.8574 24.0542C73.39 25.0499 73.9226 24.8801 74.8489 25.2506C75.3814 25.4513 75.8137 25.7832 76.246 26.1151C77.0101 26.7095 77.3729 27.3424 77.3729 28.3072V29.1332C77.3729 30.6924 77.3729 32.2515 77.2417 33.7799V33.9806C77.2108 34.0809 77.2108 34.2121 77.2108 34.3433C77.2108 35.4703 77.5736 36.5972 77.5736 37.7242C77.5736 38.5192 77.4038 39.2834 77.4038 40.0475C77.4038 40.4798 77.5736 40.912 77.5736 41.3443C77.5736 42.1084 77.5041 43.3666 76.8094 43.8683C76.246 44.262 74.2236 45.1265 74.2236 45.8289C74.2236 46.1608 74.4552 46.3924 74.6559 46.6239C74.9878 47.0176 74.8566 47.2183 75.4509 47.2183C76.3154 47.2183 76.9098 46.7552 77.4038 46.7552C77.8669 46.7552 78.2683 46.9559 78.7314 46.9559C79.2331 46.9559 79.6963 46.8864 80.1903 46.8864C80.6534 46.8864 81.0548 47.1488 81.5179 47.1488C81.9193 47.1488 82.3129 47.1797 82.7143 47.1797C83.0462 47.1797 83.2469 46.9173 83.5093 46.7166C83.7409 46.5159 83.8721 46.6857 84.1732 46.4155C84.3353 46.3847 84.5359 46.3461 84.7058 46.3461C84.8756 46.3461 84.9682 46.4155 85.0685 46.5082C85.632 46.7397 85.8636 47.0099 86.5969 47.0099C87.3301 47.0099 87.9554 46.7474 88.6501 46.7474C89.2444 46.7474 89.8465 46.8169 90.4408 46.8169C90.7033 46.8169 90.9425 46.7166 91.205 46.7166C91.506 46.7166 91.7993 46.9481 92.1004 46.9481C92.4014 46.9481 94.3928 46.2534 94.3928 45.9215C94.3928 45.4198 93.9606 44.9953 93.5283 44.7946V44.7869ZM84.5051 46.0759C84.2735 46.0759 84.1114 45.8752 83.71 45.8752C81.8498 45.8752 81.2246 45.3735 81.2246 43.4824V42.7877C81.2246 42.1239 81.2555 41.4909 81.5874 40.8271C81.7881 40.4258 82.2203 40.2637 82.4827 39.9317C82.8146 39.4995 83.2778 39.3992 83.8104 39.3992C85.9639 39.3992 86.6972 41.8846 86.6972 43.6831C86.6972 44.3778 85.2075 46.0682 84.5051 46.0682V46.0759Z" />
          <path d="M116.368 39.7127C116.198 39.7127 116.036 39.8825 115.867 39.9134C113.906 40.3765 114.439 44.3594 109.83 44.3594C109.236 44.3594 108.634 44.3594 108.04 44.3285C107.376 44.2976 106.913 43.1321 106.581 42.669C106.048 41.8739 105.886 41.8739 105.886 40.7779C105.886 40.2762 105.917 39.7821 105.986 39.2881C106.056 38.8559 106.288 38.7555 106.519 38.4545C106.681 38.223 106.82 37.9219 107.083 37.7598C107.152 37.7598 107.214 37.7289 107.283 37.7289C108.078 37.7289 108.842 37.6595 109.607 37.6595C109.838 37.6595 110.07 37.7289 110.27 37.7289C110.965 37.7289 111.529 37.3353 112.162 37.3353C112.563 37.3353 112.957 37.4974 113.358 37.4974C113.559 37.4974 113.721 37.397 113.921 37.397C114.423 37.397 114.948 37.7598 115.481 37.7598C116.638 37.7598 116.978 35.3361 116.978 34.5102C116.978 33.8155 116.847 33.1131 116.384 32.5574C116.152 32.2563 116.052 31.9553 115.751 31.7237C115.218 31.3301 115.249 30.4964 114.855 30.0333C114.624 29.7709 113.397 29.3 112.995 29.0685C112.1 28.5359 111.938 28.5359 110.842 28.505C109.946 28.4741 109.051 28.1113 108.155 28.1113C107.592 28.1113 107.461 28.3738 106.998 28.5436C106.535 28.7057 106.133 28.5745 105.67 28.8755C105.207 29.1765 103.285 30.9287 103.084 31.3609C102.884 31.7932 102.552 31.9939 102.351 32.457C102.089 33.09 101.587 33.7152 101.425 34.379C101.224 35.2744 100.691 35.9691 100.691 36.903C100.691 37.837 101.324 38.0609 101.456 39.0566C101.618 40.2144 101.355 40.9477 102.119 41.9434C102.451 42.3757 102.783 42.6767 103.046 43.1707C103.215 43.5335 103.308 43.6647 103.609 43.9966C104.203 44.6296 103.941 44.7916 104.867 45.193C105.3 45.3937 105.631 45.4246 106.095 45.5558C106.728 45.7179 107.252 45.8568 107.916 45.8568H108.711C110.07 45.8568 109.908 46.6905 110.734 46.6905C111.498 46.6905 112.162 46.3894 112.856 46.127C113.682 45.826 113.651 45.9958 114.385 45.2007C114.886 44.6681 115.311 44.1433 115.782 43.6107C116.083 43.2788 116.114 42.7462 116.445 42.3834C116.839 41.9511 117.271 41.4571 117.271 40.8242C117.271 40.3611 116.939 39.7281 116.376 39.7281L116.368 39.7127ZM105.886 34.0394C105.886 32.4493 107.283 30.0565 109.005 30.0256H109.236C109.699 30.0256 109.869 30.3266 110.301 30.4578C111.359 30.8206 111.397 31.0908 111.76 32.017C111.961 32.5496 112.254 33.1131 112.254 33.6766C112.254 34.9733 110.965 35.4056 109.869 35.4056C109.174 35.4056 108.642 35.8378 107.908 35.8378C107.546 35.8378 106.944 35.5368 106.612 35.4056C105.917 35.1432 105.878 34.9039 105.878 34.2478V34.0471L105.886 34.0394Z" />
          <path d="M246.563 34.9683C245.637 34.4666 243.182 34.5361 243.182 33.1467C243.182 32.7453 243.615 32.0197 243.877 31.6878C244.008 31.518 245.567 31.3559 245.799 30.8928C246.795 29.0326 247.821 30.3293 247.821 27.2109C247.821 26.7092 247.79 26.1843 247.621 25.6826C247.026 23.8918 246.393 24.5865 245.197 23.722C244.664 23.3592 242.673 21.4296 242.148 21.4296C241.816 21.4296 241.554 21.6611 241.183 21.6611C240.72 21.6611 240.288 21.499 239.825 21.499C239.624 21.499 239.392 21.5299 239.192 21.5685C238.929 21.5685 238.759 21.499 238.559 21.499C238.296 21.499 238.026 21.5994 237.733 21.5994C237 21.5994 236.536 20.9355 235.942 20.9355C235.348 20.9355 234.784 21.0668 234.182 21.0668H233.819C233.325 21.0668 232.723 21.0976 232.33 21.2675C232.129 21.3369 231.967 21.4373 231.735 21.4373C231.272 21.4373 230.909 21.005 230.207 21.005C229.574 21.005 228.98 21.1362 228.347 21.1362C227.552 21.1362 226.788 21.0359 225.993 21.0359C225.36 21.0359 224.333 21.6688 224.333 22.3944C224.333 23.12 225.298 23.2589 225.792 23.3207C226.487 23.421 226.757 23.8147 227.351 24.0153C228.347 24.3164 228.316 24.9416 228.648 25.7444C228.879 26.277 229.211 26.5703 229.211 27.2341C229.211 27.6663 229.381 28.06 229.381 28.4922C229.381 29.0557 229.25 29.6192 229.25 30.1827C229.25 31.0472 229.412 31.9117 229.412 32.7685C229.412 33.5017 229.211 34.1964 229.211 34.8911C229.211 35.2848 229.381 35.6244 229.381 36.0489C229.381 36.9135 229.613 37.446 229.613 37.9709C229.613 38.8972 228.748 39.1287 228.748 39.9624C228.748 40.2634 228.818 40.6262 228.818 40.9581C228.818 41.1588 228.787 41.3518 228.717 41.5216C228.254 42.7489 229.018 43.3123 227.127 44.1768C226.664 44.3775 226.625 44.5087 226.062 44.5087C225.861 44.5087 225.429 44.4779 225.097 44.4779C224.896 44.4779 224.734 44.5087 224.634 44.5473C224.372 44.6786 223.808 45.1803 223.77 45.4736V45.6048C223.77 46.3998 224.734 46.9016 225.46 46.9016C225.861 46.9016 226.255 46.5697 226.757 46.5388C227.289 46.5079 227.853 46.3072 228.347 46.3072C228.779 46.3072 229.211 46.4076 229.636 46.4076C229.999 46.4076 230.4 46.3767 230.763 46.2763C231.095 46.3767 231.427 46.4384 231.789 46.4384C232.291 46.4384 232.754 46.2763 233.248 46.2763C233.642 46.2763 233.912 46.1143 234.306 46.1143C234.537 46.1143 234.769 46.1837 234.97 46.1837C235.433 46.1837 236.328 45.8209 236.328 45.2575C236.328 44.9256 235.533 44.5937 235.263 44.4316C233.472 43.3664 234.205 41.1125 233.866 39.4915C233.835 39.26 233.765 39.0593 233.765 38.8277C233.765 38.4649 233.835 38.133 233.835 37.8011V36.8054C233.835 35.7093 233.966 34.7136 234.993 34.0189C235.062 34.0189 235.155 33.988 235.255 33.988C235.587 33.988 235.718 34.2196 235.988 34.2196C236.351 34.2196 236.621 33.9186 236.915 33.9186C237.046 33.9186 237.177 33.9494 237.308 33.988C237.44 33.9572 237.571 33.9186 237.71 33.9186C238.574 33.9186 239.701 34.6132 240.496 34.6132H240.959C241.422 34.6132 241.222 34.6441 241.793 35.2076C242.094 35.5086 242.657 35.5395 242.92 35.8714C243.422 36.5044 243.514 36.6356 243.653 37.4615C243.753 38.1562 244.186 38.025 244.186 39.6459C244.186 40.0473 244.085 40.4409 243.923 40.8037C243.661 41.3981 243.591 42.3629 243.128 42.7952C242.665 43.2274 242.032 43.5593 241.5 43.953C241.006 44.3158 240.211 44.5859 239.809 44.9796C239.709 45.0799 239.416 45.2806 239.416 45.4118C239.485 45.6743 239.948 45.7129 240.11 45.7746C240.311 45.875 241.175 46.369 241.307 46.369C241.438 46.369 241.608 46.2378 241.77 46.2378C242.565 46.2378 242.302 45.6048 243.36 45.5431C246.015 45.3424 245.181 44.8098 246.409 43.9839C246.571 43.8526 247.837 42.7566 248.037 42.5559C248.802 41.8226 248.67 41.9615 248.732 40.796C248.732 40.5336 248.763 40.2325 248.763 39.9701C248.763 38.874 248.732 37.0215 247.868 36.2574C247.404 35.8637 247.073 35.2616 246.54 34.9683H246.563ZM242.079 30.0592C241.816 30.4219 241.777 30.8233 241.515 31.1861C241.314 31.4871 239.987 32.151 239.624 32.1818C239.223 32.1818 238.86 31.9194 238.659 31.9194C238.327 31.9194 238.327 32.5137 236.969 32.5137C236.336 32.5137 235.741 32.7762 235.278 32.7762C234.746 32.7762 234.514 31.8113 234.414 31.4177C234.313 31.0549 234.082 30.7847 233.981 30.4219C233.85 29.9897 233.85 29.3645 233.85 28.9322C233.85 27.9674 234.082 27.0411 234.082 26.1149V25.1886C234.113 24.7872 235.811 22.734 236.135 22.734C236.668 22.734 237.2 22.9656 237.764 22.9656C237.764 22.9656 240.018 23.8301 240.349 23.9304C241.376 24.1929 242.171 27.512 242.171 28.5772C242.171 28.9091 242.271 29.2101 242.271 29.542C242.271 29.7427 242.202 29.9048 242.071 30.0746L242.079 30.0592Z" />
          <path d="M284.629 33.1924C284.559 32.4591 284.297 31.1006 283.803 30.5371C283.471 30.1434 282.907 30.074 282.174 29.1786C281.711 28.6151 279.519 26.6237 278.755 26.6237C278.353 26.6237 277.959 26.7549 277.527 26.7549C276.663 26.7549 276.269 26.1914 275.405 26.1914C274.54 26.1914 273.977 26.6545 273.182 26.7549C272.587 26.8552 272.487 26.9247 271.954 27.218C271.453 27.519 271.09 27.4187 270.557 27.8509C269.824 28.4453 269.862 28.3835 269.531 29.2789C269.43 29.5722 269.284 29.8192 269.121 30.0431C269.006 29.7884 268.774 29.6108 268.473 29.5877C267.477 29.4873 266.551 28.2909 265.748 28.2909C264.39 28.2909 262.499 29.5491 261.904 29.5491C261.372 29.5491 259.813 28.5534 259.218 28.5534C258.786 28.5534 258.423 28.754 258.06 28.754C257.86 28.754 257.667 28.6537 257.497 28.6537C257.165 28.6537 256.864 28.8235 256.532 28.8235C256.301 28.8235 256.138 28.6923 255.938 28.6923C255.475 28.6923 254.811 29.2249 254.811 29.8192C254.811 30.321 257.034 31.2472 257.034 33.1074C257.034 34.3347 257.165 35.562 257.165 36.7893C257.165 37.7542 256.632 38.4797 256.632 39.1127C256.632 39.6453 257.026 40.0389 257.026 40.5715C257.026 41.4669 255.536 42.7251 255.436 43.7903C255.405 44.0913 254.672 44.292 254.672 45.3495C254.672 46.1136 255.135 46.1136 255.737 46.1136C256.038 46.1136 256.27 46.0133 256.563 46.0133C257.227 46.0133 257.86 46.2757 258.524 46.2757C259.388 46.2757 260.214 46.1136 261.078 46.1136C261.572 46.1136 262.97 46.0827 262.97 45.3186C262.97 44.3537 260.584 44.2225 260.584 42.6633C260.584 41.8297 260.654 41.0038 260.654 40.1779C260.654 39.0509 261.148 38.9197 261.148 37.2602C261.148 36.3957 260.947 35.5311 260.947 34.6744C260.947 33.146 261.642 31.9573 263.271 31.9573C264.181 31.9573 265.432 33.7867 266.929 34.0955C266.968 34.6512 267.145 35.1915 267.145 35.755C267.145 36.0869 267.076 36.4497 267.076 36.8202C267.076 37.4145 267.477 37.8468 267.578 38.4489C267.74 39.4446 267.91 39.7765 268.543 40.5715C268.805 40.9034 269.206 41.2045 269.407 41.5672C269.639 41.9995 269.801 41.7988 270.04 42.1693C270.704 43.1959 271.368 43.5973 272.595 43.5973C272.765 43.5973 272.958 43.5664 273.127 43.5664H273.259C273.591 43.5973 273.521 44.3615 274.417 44.4927C274.849 44.5621 275.381 44.7937 275.775 44.7937C277.103 44.7937 277.033 44.1299 278.129 44.1299C278.461 44.1299 278.793 44.1608 279.094 44.1608C279.557 44.1608 279.99 44.0913 280.391 43.6976C280.723 43.3657 281.086 43.1342 281.448 42.8331C282.043 42.3005 282.282 41.575 282.606 41.2739C282.907 41.0115 283.008 41.0424 283.239 40.6101C283.471 40.1779 283.903 39.8768 284.034 39.4137C284.428 38.1864 285.13 37.0209 285.13 35.701C285.13 35.3382 284.93 35.1066 284.93 34.7361C284.93 34.2344 284.698 33.7404 284.629 33.2078V33.1924ZM279.881 34.52C279.881 35.1529 279.781 35.7473 279.781 36.3802V37.3065C279.781 39.0664 279.65 40.5252 278.091 41.8837C277.658 42.2465 277.396 42.617 276.732 42.617C276.4 42.617 276.099 42.3854 275.806 42.3854C275.273 42.3854 274.748 42.7791 274.216 42.7791C273.915 42.7791 273.652 42.2774 273.521 42.0844C273.089 41.4206 272.726 41.3897 272.325 40.9266C272.024 40.5947 272.093 39.9617 271.692 39.4986C271.298 39.0355 271.19 38.472 271.19 37.9085C271.19 36.9823 271.491 36.0483 271.491 35.0912C271.491 34.4274 271.622 33.7635 271.622 33.0997C271.622 32.8682 271.591 32.6366 271.591 32.4359C271.591 32.1349 271.661 31.8724 272.024 31.5714C272.788 30.9385 273.019 30.1126 273.652 29.6494C274.247 29.2172 275.111 28.2523 275.845 28.2523C276.076 28.2523 276.238 28.2832 276.439 28.4144C277.103 28.8775 277.736 28.7772 278.492 29.441C278.924 29.8347 278.654 30.1743 279.156 30.5988C279.851 31.1932 279.889 33.1229 279.889 34.2112V34.5123L279.881 34.52Z" />
          <path d="M314.115 28.0988C313.683 28.0679 313.251 28.0293 312.788 28.0293C312.425 28.0293 312.054 28.0602 311.692 28.1914C310.626 28.5542 308.975 28.4538 308.975 30.013C308.975 30.6768 309.77 31.0782 309.77 32.2052C309.77 33.7644 309.438 33.6023 309.137 34.6597C309.005 35.1229 309.036 35.6863 308.836 36.1186C308.535 36.7515 308.203 36.6821 308.041 37.5466C307.94 38.1409 307.709 38.2799 307.145 38.2799C306.643 38.2799 306.35 37.7473 306.281 37.315C306.149 36.4814 305.547 35.7558 305.354 34.8913C305.022 33.5637 304.822 33.5945 304.822 31.935C304.822 30.7772 305.586 31.3407 305.586 29.6116C305.586 28.8475 304.953 28.7471 304.328 28.7471C304.166 28.7471 304.027 28.778 303.865 28.778C303.301 28.778 302.769 28.9787 302.205 28.9787C301.673 28.9787 301.209 28.6159 300.677 28.6159C300.183 28.6159 299.55 29.3106 298.855 29.3106C298.523 29.3106 297.79 29.411 297.79 29.8741C297.79 31.3021 300.082 30.5688 300.082 33.3244C300.082 33.5868 300.113 33.9265 300.113 34.2506C300.113 35.0148 300.013 35.8098 299.519 36.3424L298.624 37.2378C298.361 37.5389 297.497 38.9282 297.134 38.9282C296.933 38.9282 296.74 38.6967 296.632 38.5655C295.474 37.2378 295.667 36.9059 295.274 35.4162C295.204 35.1152 295.142 34.8527 295.142 34.5517C295.142 34.1194 295.274 33.6872 295.274 33.2549C295.274 32.923 295.011 32.429 294.973 31.7652C294.942 31.2017 295.034 30.6074 294.672 30.1365C294.409 29.8046 294.239 29.2411 293.807 29.1099C293.406 28.9787 292.943 29.0791 292.549 28.9478C292.286 28.8784 292.016 28.8166 291.754 28.8166C291.491 28.8166 291.221 28.8861 290.959 28.8861C290.696 28.8861 290.457 28.7549 290.195 28.7549C289.994 28.7549 289.801 28.8861 289.631 28.9864C289.068 29.3492 287.57 29.218 287.57 30.1134C287.57 30.6151 288.003 31.0396 288.334 31.3407C288.728 31.6726 289.16 30.9779 290.094 32.7378C290.395 33.3012 290.256 33.8956 290.689 34.3973C291.283 35.0611 291.947 35.1923 292.148 36.1881C292.348 37.1529 292.811 37.8785 292.912 38.8742C292.981 39.6692 293.375 40.8348 293.375 41.46C293.375 42.7182 294.633 42.7182 294.664 43.5518C294.733 44.5475 294.633 46.539 296.061 46.539C296.393 46.539 296.624 46.2071 296.825 45.9755C297.52 45.0801 297.489 45.111 297.651 43.9223C297.782 43.1273 298.346 42.9266 298.616 42.1007C298.979 41.0355 299.642 40.5106 299.642 39.2447C299.642 38.7816 299.673 38.743 300.005 38.4188C300.638 37.7241 300.268 37.6238 301.402 37.6238C302.197 37.6238 302.63 39.5843 303.031 40.1478C303.564 40.9428 303.394 41.3442 303.463 42.2396C303.494 42.9034 303.795 43.0655 304.058 43.5672C304.258 43.9995 304.691 45.7594 304.853 45.9215C305.015 46.0836 305.246 46.1839 305.416 46.3537C305.617 46.5544 305.779 46.6162 306.049 46.6162C306.782 46.6162 307.207 46.0527 307.408 45.4197C307.74 44.2619 308.203 43.8914 308.334 42.6024C308.434 41.707 309.129 41.2747 309.26 40.3485C309.33 39.8854 309.723 39.9548 309.723 39.0517C309.723 38.056 310.287 37.9943 310.719 37.3304C311.313 36.4351 311.514 35.1074 311.915 34.1117C312.116 33.5791 312.479 33.1855 312.68 32.6529C313.181 31.194 314.602 32.0894 315.566 30.5997C315.728 30.3372 315.96 30.0671 315.96 29.7351C315.96 29.4341 315.759 29.2026 315.566 29.0019C314.872 28.2686 315.265 28.176 314.108 28.1065L314.115 28.0988Z" />
          <path d="M329.73 42.2298C329.73 41.867 329.761 41.4965 329.761 41.1337C329.761 40.4004 329.429 39.7366 329.429 39.1114C329.429 38.9802 330.062 36.5565 330.124 36.4252C330.718 34.9355 330.988 32.9441 330.988 31.3154C330.988 31.2459 330.988 30.8831 330.888 30.721C330.525 30.119 329.761 29.9878 329.329 29.4938C329.028 29.1618 328.966 28.8994 328.534 28.6987C328.333 28.5984 327.005 28.3359 326.812 28.3359C326.18 28.3359 325.686 28.7296 325.083 28.7991C324.52 28.8685 323.655 28.637 323.594 29.4938V29.6559C323.594 30.2888 324.126 30.3891 324.589 30.5204C325.423 30.7519 326.411 31.7168 326.411 32.5736C326.411 33.0058 326.342 33.3995 326.342 33.8008C326.342 34.2331 326.411 34.6653 326.411 35.0899C326.411 35.7846 326.048 35.9853 326.048 36.487C326.048 36.8884 326.149 37.282 326.149 37.6834C326.149 38.5093 325.755 39.2117 325.755 40.0376C325.755 40.5394 326.056 41.0025 326.056 41.5274C326.056 44.777 323.27 43.4493 323.27 45.4408C323.27 45.7418 323.47 45.9425 323.632 46.1741C323.964 46.6372 324.929 46.7067 325.686 46.7067H326.45C327.214 46.7067 327.847 45.6415 328.835 45.6415C329.931 45.6415 329.599 46.1741 330.232 46.1741C330.664 46.1741 331.59 46.1046 331.59 45.4794C331.59 44.2521 329.73 45.1166 329.73 42.2298Z" />
          <path d="M342.337 43.7583C341.874 43.4572 341.735 42.9246 341.442 42.5001C341.21 42.1991 341.01 42.1682 341.01 41.7359C341.01 41.4349 341.079 41.1416 341.079 40.8714C341.079 40.5395 340.948 40.2771 340.948 39.9452C340.948 39.3817 341.079 38.8182 341.079 38.2548C341.079 37.7608 341.048 37.2899 341.048 36.8268V36.5258C341.118 35.3293 341.511 34.2333 341.511 33.006C341.511 32.2727 340.747 31.1149 340.184 30.6132C339.682 30.1809 339.589 29.5171 339.257 29.2546C338.825 28.9227 336.834 28.1895 336.309 28.1895C335.545 28.1895 334.85 28.6217 333.955 28.6217C333.723 28.6217 333.453 28.5908 333.221 28.5908C332.72 28.5908 331.824 29.4862 331.824 30.0188C331.824 30.3507 332.65 30.8447 332.951 30.8447C333.414 30.8447 334.348 30.2118 334.912 30.2118C335.143 30.2118 335.606 30.4742 335.877 30.5437C336.61 30.7135 336.872 30.8061 336.942 31.6398C336.973 32.1415 337.073 33.7315 337.173 34.1252C337.274 34.488 337.374 34.8894 337.374 35.283C337.374 35.6149 337.305 35.9468 337.305 36.3096C337.305 36.8731 337.567 37.3748 337.567 37.9692C337.567 38.7333 337.305 39.4975 337.305 40.2925C337.305 40.7865 337.505 41.2188 337.505 41.7205C337.505 43.6116 335.413 44.9392 335.413 45.4332C335.413 45.8964 336.973 46.0971 337.335 46.0971C337.636 46.0971 337.899 45.9658 338.2 45.9658C338.563 45.9658 338.895 46.0353 339.227 46.0353C339.558 46.0353 339.859 45.935 340.191 45.935C341.257 45.935 341.851 46.7995 342.677 46.7995C343.109 46.7995 343.835 45.9041 343.835 45.4718C343.835 44.7077 342.908 44.1133 342.345 43.7505L342.337 43.7583Z" />
          <path d="M208.852 43.4877C207.656 42.6541 204.854 39.8521 204.831 38.702C204.8 37.3667 207.872 33.0133 209.864 31.3074C211.855 29.5939 213.044 28.0655 213.924 26.213C214.603 24.7851 213.507 23.5346 213.028 22.2224C212.55 20.9102 211.816 19.6443 210.666 17.8536C209.516 16.0628 208.281 11.4007 206.977 10.1039C205.703 8.83802 202.855 7.86545 201.666 7.65704C200.524 7.45636 197.76 7.91948 193.469 7.63389C190.706 7.44864 186.661 7.6802 185.241 7.83458C184.461 7.91948 183.697 7.57986 183.234 6.9392L182.817 6.36029C182.817 6.36029 179.382 2.40826 178.518 1.3122C177.653 0.223845 177.136 0 176.271 0H161.004C158.788 0 157.893 1.41254 157.414 2.78648C157.052 3.82852 155.284 6.16732 154.45 7.23251C154.18 7.57214 153.763 7.75739 153.331 7.72651C150.838 7.54898 142.587 7.10901 140.734 7.10901C138.619 7.10901 137.369 8.32858 136.728 9.6099C136.087 10.8912 135.092 12.0182 133.648 13.7163C132.205 15.4144 126.655 21.026 126.254 23.2181C126.03 24.4454 126.655 25.171 127.234 25.6187C127.813 26.0664 129.318 27.0621 130.213 28.1504C131.109 29.2388 134.358 31.593 135.887 32.4807C137.739 33.5536 137.87 34.4181 136.273 36.0391C134.852 37.4748 127.898 46.3359 127.867 47.7099C127.805 50.5658 129.025 51.0521 129.989 52.4955C130.954 53.9389 134.953 59.867 135.663 61.1483C136.365 62.4296 136.581 62.6071 137.878 63.3636C138.874 63.9425 139.931 64.9537 142.177 64.8379C144.501 64.7144 145.674 64.3902 147.758 63.873C149.341 63.4871 153.138 63.5025 154.883 63.5334C155.446 63.5411 155.956 63.8576 156.21 64.367C156.588 65.108 157.152 66.3044 157.7 67.7942C158.626 70.3259 158.981 70.5498 160.78 70.8277C162.578 71.1055 165.975 70.488 168.73 70.2642C171.486 70.0403 176.071 70.4263 177.645 70.7736C179.22 71.1287 179.884 69.5309 180.563 68.3036C181.42 66.7521 184.345 63.6183 185.434 62.4759C185.65 62.2444 186.012 62.2366 186.244 62.4451C186.476 62.6612 186.761 62.9005 187.024 63.0317C187.533 63.2864 189.741 63.078 191.886 63.078C194.611 63.078 201.033 63.9965 202.816 63.8885C204.908 63.765 205.51 60.3455 207.826 57.9218C207.826 57.9218 210.327 55.1199 211.801 54.0547C213.275 52.9895 214.726 51.9321 214.726 50.2879C214.726 48.2116 210.041 44.3213 208.845 43.4877H208.852ZM187.502 15.4067C187.88 15.0208 188.459 14.8278 188.845 14.7352C189.046 14.6889 189.231 14.8432 189.216 15.0517C189.115 16.4488 188.776 21.3193 188.776 24.5535C188.776 28.3666 188.66 31.4387 188.56 32.3649C188.483 33.0982 187.965 33.8855 187.487 34.503C187.116 34.9739 186.398 34.9507 186.074 34.449L181.227 27.093C180.432 25.8888 180.385 24.3296 181.111 23.0792C181.736 21.9986 182.562 20.7404 183.419 19.8991C185.217 18.1315 185.789 17.1434 187.502 15.399V15.4067ZM174.18 34.8504C171.547 34.7269 167.896 34.6111 165.133 34.5416C162.802 34.4799 158.294 34.3795 156.959 34.3564C156.797 34.3564 156.712 34.1711 156.812 34.0476C157.8 32.7972 161.536 28.0578 162.123 27.587C162.794 27.0389 163.728 26.3057 165.426 26.2439C167.125 26.1822 169.95 26.2748 172.003 26.1127C173.253 26.0123 174.65 26.0664 175.554 26.1204C176.179 26.159 176.758 26.4292 177.19 26.8846C178.348 28.1196 180.779 30.9524 182.809 34.889C182.886 35.0356 182.771 35.2209 182.601 35.2131C181.219 35.1591 176.418 34.9661 174.18 34.8581V34.8504ZM181.196 38.3701C180.571 39.2192 178.873 41.5812 178.07 43.1558C177.074 45.1086 174.319 46.0117 173.516 46.0117H165.596C163.034 46.0117 161.876 44.2827 160.88 42.9937C160.008 41.8667 157.661 38.3161 157.106 37.467C157.052 37.3898 157.106 37.2818 157.206 37.2818C166.013 37.3512 178.649 37.9147 181.042 38.0228C181.211 38.0305 181.304 38.2235 181.204 38.3624L181.196 38.3701ZM160.772 4.43059C162.192 2.92542 170.397 2.5858 174.743 3.02577C175.314 3.08752 175.847 3.35768 176.225 3.78993C177.591 5.34141 181.072 9.26255 183.195 11.4238C183.967 12.2111 184.098 13.423 183.504 14.357C182.215 16.387 180.007 19.8141 178.626 21.7052C178.016 22.5389 177.051 23.0483 176.017 23.0792C172.535 23.1873 164.114 23.3494 162.694 22.508C160.896 21.4505 155.23 15.0131 155.23 13.1297C155.23 11.5705 157.939 7.41776 160.764 4.43831L160.772 4.43059ZM143.991 22.0449C145.08 19.9222 147.04 17.2129 147.04 17.2129L147.511 29.2465L144.246 24.924C143.613 24.0904 143.521 22.9711 143.999 22.0372L143.991 22.0449ZM146.145 46.5984C145.566 45.757 145.566 44.6378 146.145 43.7964L148.877 39.8367L149.132 51.577C149.132 51.577 147.511 48.5898 146.145 46.5984ZM151.131 33.2989C150.861 31.1608 150.051 24.5998 149.973 21.2884C149.904 18.4788 149.649 16.1168 150.004 14.6657C150.166 14.0019 151.008 13.8012 151.463 14.3106L158.564 22.4308C158.896 22.809 159.051 23.303 158.997 23.797C158.935 24.3914 158.85 25.2327 158.819 25.9352C158.796 26.3828 158.603 26.8074 158.279 27.1161L151.726 33.4996C151.517 33.7003 151.17 33.5845 151.139 33.2989H151.131ZM152.744 53.8695C152.544 54.0702 152.196 53.9312 152.196 53.6456C152.204 48.6516 151.841 41.2956 151.633 38.2158C151.587 37.4979 152.366 37.0193 152.976 37.3976C154.605 38.4164 155.593 40.4851 156.372 41.6506C157.368 43.1249 159.352 44.4757 159.352 46.2356C159.352 47.9955 158.549 47.9337 157.106 49.408C156.017 50.5195 153.771 52.812 152.729 53.8695H152.744ZM182.848 59.9287C181.204 61.951 178.541 65.7641 177.892 66.7676C177.036 68.0952 167.588 67.4546 164.508 67.4546C161.428 67.4546 160.787 67.0686 159.004 63.3096C157.221 59.5428 155.747 59.5428 155.747 57.451C155.747 55.3592 159.383 52.0633 161.22 50.1413C163.057 48.2193 166.777 48.6902 169.726 48.7751C171.061 48.8137 172.373 48.6902 173.415 48.5358C175.029 48.3042 176.673 48.7133 177.97 49.6936C181.072 52.0324 182.616 54.7185 183.357 56.5402C183.82 57.6826 183.627 58.9793 182.848 59.9287ZM189.169 54.6259C189.169 55.5522 189.146 55.6139 188.552 55.9999C188.104 56.2854 187.718 56.8026 187.201 56.8026C186.684 56.8026 186.591 55.9921 186.236 55.4364C185.526 54.3249 184.932 52.8043 183.674 51.2065C182.809 50.1104 181.875 48.7288 181.219 47.7253C180.632 46.8299 180.617 45.6798 181.181 44.769C182.315 42.9397 184.345 40.3461 185.441 39.1189C185.858 38.6557 186.468 38.4087 187.093 38.4473L188.537 38.5477C188.992 38.5785 189.347 38.9645 189.339 39.4199L189.162 54.6336L189.169 54.6259ZM191.917 19.0114C191.917 19.0114 193.585 22.7782 194.395 23.8897C195.206 25.0012 195.206 25.858 194.395 26.7997C193.585 27.7414 191.917 30.111 191.917 30.111V19.0114ZM195.098 47.4474L192.296 50.8823V41.9053L195.098 45.3402C195.599 45.95 195.599 46.8299 195.098 47.4474Z" />
        </svg>